<?xml version="1.0" encoding="UTF-8"?>
<svg id="Layer_2" data-name="Layer 2" xmlns="http://www.w3.org/2000/svg" xmlns:xlink="http://www.w3.org/1999/xlink" viewBox="0 0 296.7 172.51">
  <defs>
    <style>
      .cls-1 {
        fill: none;
      }

      .cls-2 {
        fill: #00c950;
      }

      .cls-3 {
        fill: #fff;
      }

      .cls-4 {
        clip-path: url(#clippath);
      }
    </style>
    <clipPath id="clippath">
      <path class="cls-1" d="M37.58-2v176.51h248.48V-2H37.58ZM171.11,96.28c.42-.35.84-.7,1.26-1.06-.42-.09-.84-.2-1.26-.3v-4.61c1.76.46,3.62.85,5.59,1.17.99-.84,2.1-1.8,3.32-2.86l.52-.06c-.3,1.8-.45,4.07-.45,6.83v3.14c-3,2.42-5.94,4.73-8.76,6.87l-.21.02v-9.16ZM182.79,126.73c-2,.51-3.73,1.02-5.29,1.57-3.07,1.08-5.85,2.31-8.3,3.67-.45.03-.91.05-1.4.05-.43,0-.81-.17-1.13-.51-.32-.34-.49-.8-.49-1.38,0-.77.17-1.35.53-1.74.09-.1.2-.19.3-.28-.05,0-.09.02-.14.03,2.32-1.16,4.89-2.23,7.67-3.19,1.78-.61,3.73-1.18,5.8-1.7.17.68.44,1.26.79,1.72.44.58,1.04,1.12,1.77,1.64l-.12.12ZM194.67,80c-.4,1.55-.92,2.88-1.54,4-.62,1.11-1.31,1.67-2.06,1.67-.43,0-.89-.17-1.37-.51-.48-.34-.97-.75-1.45-1.23-.48-.39-.98-.77-1.5-1.16,0,0-.01,0-.02-.01,1.76-1.56,3.65-3.23,5.71-5.07l2.37-2.11.47.21c-.01,1.32-.21,2.72-.6,4.22ZM196.8,84.27l-.31.05-.02-10.22c3.29-2.92,6.12-5.42,8.52-7.51l.32-.05v5.91c0,1.45.05,2.54.16,3.27.05.34.12.59.2.77-3.24,2.86-6.21,5.47-8.86,7.78ZM243.2,43.83v1.61c-1.5,1.02-3.03,2.13-4.56,3.31-1.33,1.01-2.74,2.11-4.17,3.24l-.24.03v-1.06c0-2.63-.22-4.87-.65-6.72,1.82-1.19,3.5-2.21,4.99-3.02,1.52-.81,3.1-1.6,4.69-2.36-.04,1.47-.06,3.13-.06,4.98Z"/>
    </clipPath>
  </defs>
  <g id="Layer_1-2" data-name="Layer 1">
    <rect class="cls-2" y="19.13" width="296.7" height="130.03"/>
    <g>
      <path d="M126.02,132.25c8.3,1.68,18.18,3.63,29.66,5.87,3.75-5.03,10.14-9.11,19.18-12.23,9.03-3.12,20.49-4.68,34.35-4.68,8.18,0,14.69,1.03,19.52,3.08,4.83,2.05,7.25,4.52,7.25,7.41,0,3.54-3.67,6.66-11,9.37-7.33,2.7-16.88,4.05-28.64,4.05s-24.86-1.12-39.3-3.35c-1.14,2.24-1.7,4.66-1.7,7.27,0,6.06,3.61,11.25,10.83,15.59,7.22,4.33,17.25,6.5,30.09,6.5l.68,1.12c-2.05.19-3.58.28-4.6.28-12.16,0-21.91-2.4-29.24-7.2-7.33-4.8-11-10.46-11-16.99,0-2.52.57-4.85,1.7-6.99-11.25-1.96-22.5-4.15-33.76-6.57-17.28,7.08-34.5,10.62-51.66,10.62-8.52,0-15.46-1.38-20.8-4.12-5.34-2.75-8.01-5.66-8.01-8.74s2.05-5.57,6.14-7.48c4.09-1.91,10.2-2.87,18.33-2.87s27.19,3.03,57.2,9.09c15.69-7.46,33.47-19.66,53.36-36.63-9.89-1.77-17.33-5.33-22.33-10.69-5-5.36-7.5-11.72-7.5-19.08v-.28c-9.32-.84-16.23-3.03-20.71-6.57-4.49-3.54-6.74-7.92-6.74-13.14,0-8.85,5.57-17.92,16.71-27.19,11.14-9.27,24.38-15.17,39.72-17.68l.51,1.26c-15.34,2.61-28.24,8.23-38.7,16.85-10.46,8.62-15.68,17.13-15.68,25.51,0,4.94,2.05,9.11,6.14,12.51,4.09,3.4,10.34,5.66,18.75,6.78.34-5.59,2.1-11.11,5.28-16.57,3.18-5.45,7.42-10.44,12.7-14.96,5.29-4.52,11.96-8.18,20.03-10.97,8.07-2.8,16.14-4.19,24.21-4.19,14.77,0,22.16,3.77,22.16,11.32,0,3.63-1.88,7.62-5.63,11.95-3.75,4.33-8.78,8.39-15.09,12.16-6.31,3.77-14.26,6.94-23.87,9.51-9.61,2.56-19.69,3.84-30.26,3.84-2.73,0-4.72-.05-5.97-.14v1.4c0,6.62,2.36,12.28,7.08,16.99,4.72,4.71,11.9,7.81,21.57,9.3,3.64-3.08,9.01-7.78,16.11-14.12,7.1-6.34,12.5-11.09,16.2-14.26,3.69-3.17,8.55-7.08,14.58-11.74,6.02-4.66,11.08-8.11,15.17-10.34,10.8-5.78,20.4-8.67,28.81-8.67,10.8,0,16.2,2.94,16.2,8.81,0,4.29-2.93,9.51-8.78,15.66-5.86,6.15-13.21,12.02-22.08,17.61-8.87,5.59-19.24,10.37-31.11,14.33-11.88,3.96-23.22,5.94-34.01,5.94-2.73,0-4.72-.05-5.97-.14-20.35,16.68-39.04,28.89-56.09,36.63ZM70.1,143.57c15,0,30.18-3.26,45.52-9.79-28.3-6.34-45.75-9.51-52.34-9.51s-11.34.75-14.23,2.24c-2.9,1.49-4.35,3.52-4.35,6.08s2.3,5.03,6.9,7.41,10.77,3.56,18.5,3.56ZM224.73,28.38c0-6.24-6.2-9.37-18.58-9.37-6.82,0-13.84,1.33-21.05,3.98-7.22,2.66-13.38,6.13-18.5,10.41-5.12,4.29-9.27,9.04-12.45,14.26-3.18,5.22-5.06,10.39-5.63,15.52,2.95.19,5.34.28,7.16.28,9.43,0,18.58-1.21,27.45-3.63,8.87-2.42,16.25-5.43,22.16-9.02,5.91-3.59,10.63-7.41,14.15-11.46,3.52-4.05,5.29-7.71,5.29-10.97ZM159.27,138.68c16.48,2.89,29.3,4.33,38.45,4.33s16.96-1.24,23.44-3.7c6.48-2.47,9.72-5.24,9.72-8.32,0-2.24-1.99-4.12-5.97-5.66-3.98-1.54-9.78-2.31-17.39-2.31-12.05,0-22.16,1.45-30.35,4.33-8.18,2.89-14.15,6.66-17.9,11.32ZM238.03,47.95c-7.73,5.87-17.25,13.82-28.56,23.84-11.31,10.02-19.58,17.22-24.8,21.6,1.14.09,2.9.14,5.28.14,9.32,0,19.41-1.96,30.26-5.87,10.85-3.91,20.46-8.57,28.81-13.98,8.35-5.4,15.34-11.02,20.97-16.85,5.63-5.82,8.44-10.65,8.44-14.47,0-4.57-4.04-6.85-12.11-6.85s-17.5,4.15-28.3,12.44Z"/>
      <g>
        <path class="cls-3" d="M32.59,133.76c-2.32,0-4.51-.53-6.59-1.6-2.07-1.06-3.97-2.66-5.7-4.79-.32-.48-.62-.99-.89-1.53-.27-.53-.48-1.14-.65-1.82-.43-2.42-.73-5.4-.89-8.93-.16-3.54-.22-6.95-.16-10.24,0-.68.15-1.16.44-1.45.3-.29.66-.44,1.09-.44s.77.12,1.01.36c.24.24.42.7.53,1.38,1.18,7.26,2.91,12.93,5.17,17,2.26,4.07,4.82,6.1,7.68,6.1,1.78,0,3.29-.73,4.53-2.18,1.24-1.45,2.18-3.34,2.83-5.67.65-2.32.97-4.84.97-7.55,0-3.39-.34-6.2-1.01-8.43-.67-2.23-1.68-4.24-3.03-6.03-1.35-1.79-3.04-3.7-5.09-5.74-2.21-2.32-4.36-4.77-6.47-7.34-2.1-2.56-3.83-5.62-5.17-9.15-1.35-3.53-2.02-7.92-2.02-13.15s.77-10.19,2.3-14.31c1.54-4.12,3.68-7.34,6.43-9.66,2.75-2.32,5.93-3.49,9.54-3.49,1.99,0,3.85.39,5.58,1.16,1.72.78,3.1,1.55,4.12,2.32.59.39,1.04.87,1.33,1.45.3.58.53,1.5.69,2.76.32,2.03.61,4.46.85,7.26.24,2.81.36,5.76.36,8.86,0,1.16-.48,1.74-1.45,1.74-.43,0-.86-.19-1.29-.58-.43-.39-.7-.92-.81-1.6-.97-5.62-2.3-9.88-4-12.79s-3.79-4.36-6.26-4.36c-1.67,0-3.1.51-4.28,1.53-1.19,1.02-2.13,2.57-2.83,4.65-.7,2.08-1.05,4.77-1.05,8.06,0,2.52.47,4.84,1.41,6.97.94,2.13,2.26,4.21,3.96,6.25s3.6,4.26,5.7,6.68c2.59,2.71,4.75,5.45,6.51,8.21,1.75,2.76,3.08,5.81,4,9.15.92,3.34,1.37,7.29,1.37,11.84,0,6.39-.78,11.75-2.34,16.05-1.56,4.31-3.75,7.55-6.55,9.73-2.8,2.18-6.09,3.27-9.86,3.27Z"/>
        <path class="cls-3" d="M76.48,134.48c-.43,0-.65-.44-.65-1.31,0-1.07.07-2.56.2-4.5.13-1.94.2-3.49.2-4.65,0-.29-.01-.56-.04-.8-.03-.24-.04-.41-.04-.51-1.67,3.29-3.62,5.96-5.86,7.99-2.24,2.03-4.59,3.05-7.07,3.05-1.73,0-3.27-.82-4.65-2.47-1.37-1.65-2.45-3.92-3.23-6.83-.78-2.91-1.17-6.29-1.17-10.17v-27.89c0-2.23-.24-4-.73-5.3s-1.35-2.3-2.59-2.98c-.32-.1-.61-.34-.85-.73-.24-.39-.36-.97-.36-1.74s.12-1.36.36-1.74c.24-.39.53-.63.85-.73,2.15-.19,4.01-.56,5.58-1.09,1.56-.53,3.23-1.19,5.01-1.96.21-.19.43-.34.65-.44.21-.1.43-.15.65-.15.7,0,1.02.68.97,2.03-.16,2.23-.3,4.09-.4,5.59-.11,1.5-.16,3.37-.16,5.59v28.04c0,2.32.24,4.41.73,6.25.48,1.84,1.16,3.29,2.02,4.36.86,1.07,1.8,1.65,2.83,1.74,1.02,0,1.98-.19,2.87-.58.89-.39,1.76-1.26,2.63-2.62.43-.58.92-1.67,1.45-3.27.54-1.6.81-3.71.81-6.32v-24.41c0-1.84-.23-3.32-.69-4.43-.46-1.11-1.05-1.96-1.78-2.54-.73-.58-1.47-.87-2.22-.87-.59-.1-1.05-.34-1.37-.73-.32-.39-.48-1.16-.48-2.32,0-.97.19-1.65.57-2.03.38-.39.81-.58,1.29-.58,2.37-.29,4.28-.53,5.74-.73,1.45-.19,2.68-.44,3.68-.73,1-.29,1.98-.68,2.95-1.16.16-.1.34-.17.53-.22.19-.05.34-.07.44-.07.75,0,1.13.53,1.13,1.6,0,.29-.01.61-.04.94-.03.34-.09.7-.2,1.09-.05.29-.12,1.11-.2,2.47-.08,1.36-.16,2.76-.24,4.21-.08,1.45-.12,2.57-.12,3.34v33.71c0,2.32.15,3.92.44,4.79.3.87.63,1.31,1.01,1.31.32,0,.79-.02,1.41-.07.62-.05,1.06-.07,1.33-.07.43,0,.78.2,1.05.58.27.39.4,1.02.4,1.89s-.09,1.53-.28,1.96c-.19.44-.53.7-1.01.8-2.42.39-4.58,1.14-6.47,2.25-1.89,1.12-3.53,2.2-4.93,3.27-.32.19-.66.39-1.01.58-.35.19-.66.29-.93.29Z"/>
        <path class="cls-3" d="M108.8,133.61c-1.45,0-2.82-.22-4.08-.65-1.27-.44-2.44-.94-3.52-1.53-.97-.48-1.82-.89-2.55-1.23-.73-.34-1.31-.51-1.74-.51s-.86.2-1.29.58c-.43.39-.81.82-1.13,1.31-.43.58-.78.87-1.05.87-.38,0-.7-.17-.97-.51-.27-.34-.4-.75-.4-1.24,0-.87.13-2.52.4-4.94.27-2.42.38-5.18.32-8.28l-.16-66.54c0-2.61-.26-4.87-.77-6.76-.51-1.89-1.39-3.12-2.63-3.71-.22-.19-.43-.46-.65-.8-.22-.34-.32-.85-.32-1.53,0-.58.09-1.02.28-1.31.19-.29.39-.48.61-.58,1.02-.39,2.26-1.02,3.72-1.89,1.45-.87,2.85-1.77,4.2-2.69,1.35-.92,2.37-1.57,3.07-1.96.43-.39.75-.58.97-.58.27,0,.46.15.57.44.11.29.16.63.16,1.02,0,.58-.05,1.96-.16,4.14-.11,2.18-.16,4.53-.16,7.05v30.66c0,1.45.05,2.54.16,3.27.11.73.3,1.09.57,1.09,1.67-2.23,3.48-3.97,5.42-5.23,1.94-1.26,3.74-1.89,5.42-1.89,2.8,0,5.31,1.31,7.52,3.92,2.21,2.62,3.97,6.13,5.29,10.53,1.32,4.41,1.98,9.47,1.98,15.18,0,6.68-.81,12.62-2.42,17.8-1.62,5.18-3.85,9.23-6.71,12.13-2.86,2.91-6.17,4.36-9.94,4.36ZM110.34,127.95c1.67,0,3.08-1.14,4.24-3.41,1.16-2.28,2.06-5.3,2.71-9.08.65-3.78.97-7.99.97-12.64,0-3.78-.31-7.65-.93-11.62-.62-3.97-1.6-7.31-2.95-10.02-1.35-2.71-3.1-4.07-5.25-4.07-1.35,0-2.72.39-4.12,1.16-1.4.78-2.56,1.89-3.48,3.34v30.07c0,3.2.42,6.03,1.25,8.5.83,2.47,1.93,4.38,3.27,5.74,1.35,1.36,2.77,2.03,4.28,2.03Z"/>
        <path class="cls-3" d="M153.74,134.48c-.43,0-.65-.44-.65-1.31,0-1.07.07-2.56.2-4.5.13-1.94.2-3.49.2-4.65,0-.29-.01-.56-.04-.8-.03-.24-.04-.41-.04-.51-1.67,3.29-3.62,5.96-5.86,7.99-2.24,2.03-4.59,3.05-7.07,3.05-1.73,0-3.27-.82-4.65-2.47-1.37-1.65-2.45-3.92-3.23-6.83-.78-2.91-1.17-6.29-1.17-10.17v-27.89c0-2.23-.24-4-.73-5.3s-1.35-2.3-2.59-2.98c-.32-.1-.61-.34-.85-.73-.24-.39-.36-.97-.36-1.74s.12-1.36.36-1.74c.24-.39.53-.63.85-.73,2.15-.19,4.01-.56,5.58-1.09,1.56-.53,3.23-1.19,5.01-1.96.21-.19.43-.34.65-.44.21-.1.43-.15.65-.15.7,0,1.02.68.97,2.03-.16,2.23-.3,4.09-.4,5.59-.11,1.5-.16,3.37-.16,5.59v28.04c0,2.32.24,4.41.73,6.25.48,1.84,1.16,3.29,2.02,4.36.86,1.07,1.8,1.65,2.83,1.74,1.02,0,1.98-.19,2.87-.58.89-.39,1.76-1.26,2.63-2.62.43-.58.92-1.67,1.45-3.27.54-1.6.81-3.71.81-6.32v-24.41c0-1.84-.23-3.32-.69-4.43-.46-1.11-1.05-1.96-1.78-2.54-.73-.58-1.47-.87-2.22-.87-.59-.1-1.05-.34-1.37-.73-.32-.39-.48-1.16-.48-2.32,0-.97.19-1.65.57-2.03.38-.39.81-.58,1.29-.58,2.37-.29,4.28-.53,5.74-.73,1.45-.19,2.68-.44,3.68-.73,1-.29,1.98-.68,2.95-1.16.16-.1.34-.17.53-.22.19-.05.34-.07.44-.07.75,0,1.13.53,1.13,1.6,0,.29-.01.61-.04.94-.03.34-.09.7-.2,1.09-.05.29-.12,1.11-.2,2.47-.08,1.36-.16,2.76-.24,4.21-.08,1.45-.12,2.57-.12,3.34v33.71c0,2.32.15,3.92.44,4.79.3.87.63,1.31,1.01,1.31.32,0,.79-.02,1.41-.07.62-.05,1.06-.07,1.33-.07.43,0,.78.2,1.05.58.27.39.4,1.02.4,1.89s-.09,1.53-.28,1.96c-.19.44-.53.7-1.01.8-2.42.39-4.58,1.14-6.47,2.25-1.89,1.12-3.53,2.2-4.93,3.27-.32.19-.66.39-1.01.58-.35.19-.66.29-.93.29Z"/>
        <path class="cls-3" d="M167.8,132.01c-.43,0-.81-.17-1.13-.51-.32-.34-.49-.8-.49-1.38,0-.77.17-1.35.53-1.74.35-.39.79-.73,1.33-1.02,1.13-.58,1.93-1.28,2.38-2.11.46-.82.69-1.96.69-3.41v-32.69c0-2.23-.18-4.09-.53-5.59-.35-1.5-1.09-2.49-2.22-2.98-.22-.19-.43-.46-.65-.8-.22-.34-.32-.85-.32-1.53,0-1.26.3-2.03.89-2.32,1.62-.77,3.37-1.82,5.25-3.12,1.89-1.31,3.48-2.59,4.77-3.85.27-.29.57-.58.89-.87s.57-.44.73-.44c.43,0,.65.49.65,1.45,0,.39-.01,1.26-.04,2.62-.03,1.36-.05,2.83-.08,4.43-.03,1.6-.07,3.03-.12,4.29,0,.58.08.87.24.87.86-2.03,1.83-3.92,2.91-5.67,1.08-1.74,2.22-3.2,3.44-4.36,1.21-1.16,2.44-1.74,3.68-1.74,1.56,0,2.73.58,3.52,1.74.78,1.16,1.17,2.62,1.17,4.36,0,1.36-.2,2.81-.61,4.36-.4,1.55-.92,2.88-1.54,4-.62,1.11-1.31,1.67-2.06,1.67-.43,0-.89-.17-1.37-.51-.48-.34-.97-.75-1.45-1.23-.48-.39-.98-.77-1.5-1.16-.51-.39-.98-.58-1.41-.58-1.35,0-2.56.9-3.64,2.69-1.08,1.79-1.62,5.3-1.62,10.53v25.57c0,1.74.35,3.08,1.05,4,.7.92,1.78,1.77,3.23,2.54.59.29,1.04.61,1.33.94.3.34.44.9.44,1.67,0,1.26-.49,1.89-1.46,1.89-1.62,0-3.14-.12-4.57-.36-1.43-.24-2.84-.36-4.24-.36-.92,0-1.79.05-2.63.15-.84.1-1.68.22-2.55.36-.86.15-1.83.22-2.91.22Z"/>
        <path class="cls-3" d="M212.57,133.61c-1.45,0-2.82-.22-4.08-.65-1.27-.44-2.44-.94-3.52-1.53-.97-.48-1.82-.89-2.55-1.23-.73-.34-1.31-.51-1.74-.51s-.86.2-1.29.58c-.43.39-.81.82-1.13,1.31-.43.58-.78.87-1.05.87-.38,0-.7-.17-.97-.51-.27-.34-.4-.75-.4-1.24,0-.87.13-2.52.4-4.94.27-2.42.38-5.18.32-8.28l-.16-66.54c0-2.61-.26-4.87-.77-6.76-.51-1.89-1.39-3.12-2.63-3.71-.22-.19-.43-.46-.65-.8-.22-.34-.32-.85-.32-1.53,0-.58.09-1.02.28-1.31.19-.29.39-.48.61-.58,1.02-.39,2.26-1.02,3.72-1.89,1.45-.87,2.85-1.77,4.2-2.69,1.35-.92,2.37-1.57,3.07-1.96.43-.39.75-.58.97-.58.27,0,.46.15.57.44.11.29.16.63.16,1.02,0,.58-.05,1.96-.16,4.14-.11,2.18-.16,4.53-.16,7.05v30.66c0,1.45.05,2.54.16,3.27.11.73.3,1.09.57,1.09,1.67-2.23,3.48-3.97,5.42-5.23,1.94-1.26,3.74-1.89,5.42-1.89,2.8,0,5.31,1.31,7.52,3.92,2.21,2.62,3.97,6.13,5.29,10.53,1.32,4.41,1.98,9.47,1.98,15.18,0,6.68-.81,12.62-2.42,17.8-1.62,5.18-3.85,9.23-6.71,12.13-2.86,2.91-6.17,4.36-9.94,4.36ZM214.11,127.95c1.67,0,3.08-1.14,4.24-3.41,1.16-2.28,2.06-5.3,2.71-9.08.65-3.78.97-7.99.97-12.64,0-3.78-.31-7.65-.93-11.62-.62-3.97-1.6-7.31-2.95-10.02-1.35-2.71-3.1-4.07-5.25-4.07-1.35,0-2.72.39-4.12,1.16-1.4.78-2.56,1.89-3.48,3.34v30.07c0,3.2.42,6.03,1.25,8.5.83,2.47,1.93,4.38,3.27,5.74,1.35,1.36,2.77,2.03,4.28,2.03Z"/>
        <path class="cls-3" d="M230.76,132.01c-.43,0-.81-.14-1.13-.44s-.48-.73-.48-1.31c0-.77.17-1.36.53-1.74.35-.39.79-.77,1.33-1.16.81-.48,1.55-1.02,2.22-1.6.67-.58,1.01-1.89,1.01-3.92V50.95c0-2.71-.23-5.01-.69-6.9-.46-1.89-1.36-3.07-2.71-3.56-.54-.19-.81-.92-.81-2.18,0-1.16.24-1.84.73-2.03,1.35-.48,2.73-1.16,4.16-2.03,1.43-.87,2.77-1.74,4.04-2.62,1.27-.87,2.33-1.55,3.19-2.03.38-.29.65-.44.81-.44.27,0,.46.17.57.51.11.34.16.65.16.94,0,.78-.08,2.25-.24,4.43s-.24,5.11-.24,8.79v77.87c0,2.03.32,3.34.97,3.92s1.37,1.12,2.18,1.6c.54.39.98.78,1.33,1.16.35.39.53.97.53,1.74,0,.58-.16,1.02-.48,1.31-.32.29-.7.44-1.13.44-1.02,0-1.97-.07-2.83-.22-.86-.14-1.71-.24-2.55-.29-.84-.05-1.74-.07-2.71-.07-.92,0-1.77.05-2.55.15-.78.1-1.58.22-2.38.36-.81.15-1.75.22-2.83.22Z"/>
        <path class="cls-3" d="M260.98,133.61c-2.96,0-5.58-1.36-7.84-4.07-2.26-2.71-4.04-6.46-5.33-11.26-1.29-4.79-1.94-10.24-1.94-16.34s.77-11.31,2.3-16.2c1.54-4.89,3.6-8.79,6.18-11.7,2.59-2.91,5.42-4.36,8.49-4.36,2.26,0,4.28.85,6.06,2.54,1.78,1.7,3.19,4.02,4.24,6.97,1.05,2.96,1.58,6.27,1.58,9.95,0,3.49-.84,5.23-2.5,5.23h-16.41c-.76,0-1.31.36-1.66,1.09-.35.73-.53,2.06-.53,4,0,4.07.5,7.75,1.5,11.04,1,3.29,2.33,5.91,4,7.85,1.67,1.94,3.58,2.91,5.74,2.91,1.56,0,3-.56,4.32-1.67,1.32-1.11,2.57-2.64,3.76-4.58.21-.29.4-.56.57-.8.16-.24.32-.36.48-.36.54,0,.81.58.81,1.74,0,1.36-.32,3-.97,4.94-.65,2.23-1.58,4.36-2.79,6.39-1.21,2.03-2.68,3.66-4.41,4.87-1.72,1.21-3.61,1.82-5.66,1.82ZM255.81,88.72h5.74c1.4,0,2.45-.05,3.15-.15.7-.1,1.37-.29,2.02-.58.27-.1.46-.51.57-1.24.11-.73.16-1.57.16-2.54,0-2.61-.55-4.82-1.66-6.61-1.1-1.79-2.46-2.69-4.08-2.69-1.13,0-2.24.61-3.31,1.82-1.08,1.21-1.97,2.74-2.67,4.58-.7,1.84-1.02,3.73-.97,5.67,0,1.16.35,1.74,1.05,1.74Z"/>
      </g>
      <g class="cls-4">
        <path d="M126.02,132.25c8.3,1.68,18.18,3.63,29.66,5.87,3.75-5.03,10.14-9.11,19.18-12.23,9.03-3.12,20.49-4.68,34.35-4.68,8.18,0,14.69,1.03,19.52,3.08,4.83,2.05,7.25,4.52,7.25,7.41,0,3.54-3.67,6.66-11,9.37-7.33,2.7-16.88,4.05-28.64,4.05s-24.86-1.12-39.3-3.35c-1.14,2.24-1.7,4.66-1.7,7.27,0,6.06,3.61,11.25,10.83,15.59,7.22,4.33,17.25,6.5,30.09,6.5l.68,1.12c-2.05.19-3.58.28-4.6.28-12.16,0-21.91-2.4-29.24-7.2-7.33-4.8-11-10.46-11-16.99,0-2.52.57-4.85,1.7-6.99-11.25-1.96-22.5-4.15-33.76-6.57-17.28,7.08-34.5,10.62-51.66,10.62-8.52,0-15.46-1.38-20.8-4.12-5.34-2.75-8.01-5.66-8.01-8.74s2.05-5.57,6.14-7.48c4.09-1.91,10.2-2.87,18.33-2.87s27.19,3.03,57.2,9.09c15.69-7.46,33.47-19.66,53.36-36.63-9.89-1.77-17.33-5.33-22.33-10.69-5-5.36-7.5-11.72-7.5-19.08v-.28c-9.32-.84-16.23-3.03-20.71-6.57-4.49-3.54-6.74-7.92-6.74-13.14,0-8.85,5.57-17.92,16.71-27.19,11.14-9.27,24.38-15.17,39.72-17.68l.51,1.26c-15.34,2.61-28.24,8.23-38.7,16.85-10.46,8.62-15.68,17.13-15.68,25.51,0,4.94,2.05,9.11,6.14,12.51,4.09,3.4,10.34,5.66,18.75,6.78.34-5.59,2.1-11.11,5.28-16.57,3.18-5.45,7.42-10.44,12.7-14.96,5.29-4.52,11.96-8.18,20.03-10.97,8.07-2.8,16.14-4.19,24.21-4.19,14.77,0,22.16,3.77,22.16,11.32,0,3.63-1.88,7.62-5.63,11.95-3.75,4.33-8.78,8.39-15.09,12.16-6.31,3.77-14.26,6.94-23.87,9.51-9.61,2.56-19.69,3.84-30.26,3.84-2.73,0-4.72-.05-5.97-.14v1.4c0,6.62,2.36,12.28,7.08,16.99,4.72,4.71,11.9,7.81,21.57,9.3,3.64-3.08,9.01-7.78,16.11-14.12,7.1-6.34,12.5-11.09,16.2-14.26,3.69-3.17,8.55-7.08,14.58-11.74,6.02-4.66,11.08-8.11,15.17-10.34,10.8-5.78,20.4-8.67,28.81-8.67,10.8,0,16.2,2.94,16.2,8.81,0,4.29-2.93,9.51-8.78,15.66-5.86,6.15-13.21,12.02-22.08,17.61-8.87,5.59-19.24,10.37-31.11,14.33-11.88,3.96-23.22,5.94-34.01,5.94-2.73,0-4.72-.05-5.97-.14-20.35,16.68-39.04,28.89-56.09,36.63ZM70.1,143.57c15,0,30.18-3.26,45.52-9.79-28.3-6.34-45.75-9.51-52.34-9.51s-11.34.75-14.23,2.24c-2.9,1.49-4.35,3.52-4.35,6.08s2.3,5.03,6.9,7.41,10.77,3.56,18.5,3.56ZM224.73,28.38c0-6.24-6.2-9.37-18.58-9.37-6.82,0-13.84,1.33-21.05,3.98-7.22,2.66-13.38,6.13-18.5,10.41-5.12,4.29-9.27,9.04-12.45,14.26-3.18,5.22-5.06,10.39-5.63,15.52,2.95.19,5.34.28,7.16.28,9.43,0,18.58-1.21,27.45-3.63,8.87-2.42,16.25-5.43,22.16-9.02,5.91-3.59,10.63-7.41,14.15-11.46,3.52-4.05,5.29-7.71,5.29-10.97ZM159.27,138.68c16.48,2.89,29.3,4.33,38.45,4.33s16.96-1.24,23.44-3.7c6.48-2.47,9.72-5.24,9.72-8.32,0-2.24-1.99-4.12-5.97-5.66-3.98-1.54-9.78-2.31-17.39-2.31-12.05,0-22.16,1.45-30.35,4.33-8.18,2.89-14.15,6.66-17.9,11.32ZM238.03,47.95c-7.73,5.87-17.25,13.82-28.56,23.84-11.31,10.02-19.58,17.22-24.8,21.6,1.14.09,2.9.14,5.28.14,9.32,0,19.41-1.96,30.26-5.87,10.85-3.91,20.46-8.57,28.81-13.98,8.35-5.4,15.34-11.02,20.97-16.85,5.63-5.82,8.44-10.65,8.44-14.47,0-4.57-4.04-6.85-12.11-6.85s-17.5,4.15-28.3,12.44Z"/>
      </g>
    </g>
    <path class="cls-3" d="M281.59,134.85c-1.56,0-2.92-1.04-4.08-3.12-1.16-2.08-1.74-4.53-1.74-7.34,0-3,.58-5.54,1.74-7.63,1.16-2.08,2.52-3.12,4.08-3.12,1.67,0,3.08,1.04,4.24,3.12,1.16,2.08,1.74,4.63,1.74,7.63,0,2.81-.58,5.25-1.74,7.34-1.16,2.08-2.57,3.12-4.24,3.12Z"/>
  </g>
</svg>